<svg id="Layer_1" data-name="Layer 1" xmlns="http://www.w3.org/2000/svg" viewBox="0 0 140.62 39.48"><defs><style>.cls-1{fill:#00a3e0;}.cls-2{fill:#fff;}.cls-3{fill:#0075a8;}</style></defs><title>logo</title><rect class="cls-1" width="54.86" height="39.48" rx="5.24" ry="5.24"/><path class="cls-2" d="M24.78,20.54c0-.81-.37-2.19-.38-4.14s0-4.2-.05-6.76H22.67q-1.09,0-2.38.09a8.58,8.58,0,0,0-2.46.53,4.7,4.7,0,0,0-2.25,1.64,4.41,4.41,0,0,0-.82,2.67,5.62,5.62,0,0,0,.55,2.7A6.59,6.59,0,0,0,16.63,19a10.51,10.51,0,0,0,2.14,1.46,10.23,10.23,0,0,0,2,.88l0,.18Q15.2,27.92,12.5,31t-3.14,3.5L6.84,32.38l3.54-3.69q3.3-3.43,6.06-6.66v-.1a15.34,15.34,0,0,1-3.33-2.83,6.75,6.75,0,0,1-1.76-4.76,6.48,6.48,0,0,1,1.17-3.86A7.27,7.27,0,0,1,15.67,8a11.94,11.94,0,0,1,3.22-.87,28.12,28.12,0,0,1,3.4-.2q1.53,0,3.34,0l2,0q-.1,7.2-.1,9.92c0,1.81-.37,3.06-.37,3.73" transform="translate(0 -0.26)"/><path class="cls-2" d="M46.55,7q0,3.87,0,6.4t0,4.4q0,2.3,0,3.92t0,2.81a11.3,11.3,0,0,1-.7,4.12,8.46,8.46,0,0,1-2.11,3.11,10,10,0,0,1-3.47,2.09,13.75,13.75,0,0,1-4.76.76,13.93,13.93,0,0,1-4.76-.75,10,10,0,0,1-3.49-2.1,8.45,8.45,0,0,1-2.11-3.11,11.3,11.3,0,0,1-.7-4.12q0-1.19,0-2.81t0-3.92q0-1.87,0-4.4t0-6.4h3.33q0,.5-.05,3.44t0,7.71q0,1.45,0,3t0,3.18a7.14,7.14,0,0,0,2.12,5.59,8.24,8.24,0,0,0,5.72,1.9q3.91,0,5.87-1.81t2-5.68q0-1.63,0-3.18t0-3q0-4.78,0-7.82t0-3.33Z" transform="translate(0 -0.26)"/><path d="M67.52,14v4.2H65.2v-11h3.19A5.47,5.47,0,0,1,71.69,8a2.9,2.9,0,0,1,1.07,2.47,2.91,2.91,0,0,1-.53,1.72,3.52,3.52,0,0,1-1.51,1.18q2.47,3.7,3.22,4.77H71.37L68.76,14Zm0-1.89h.75a2.87,2.87,0,0,0,1.63-.37,1.31,1.31,0,0,0,.52-1.15,1.2,1.2,0,0,0-.54-1.11,3.25,3.25,0,0,0-1.66-.33h-.7Z" transform="translate(0 -0.26)"/><path d="M81.64,18.18H75.33v-11h6.31v1.9h-4v2.41h3.71v1.9H77.65v2.83h4Z" transform="translate(0 -0.26)"/><path d="M90.63,18.18l-.79-2.61h-4L85,18.18h-2.5l3.87-11h2.84l3.88,11Zm-1.35-4.56q-1.1-3.54-1.24-4t-.2-.73q-.25,1-1.42,4.74Z" transform="translate(0 -0.26)"/><path d="M94.51,18.18v-11h2.32v9h4.44v1.92Z" transform="translate(0 -0.26)"/><path class="cls-3" d="M102.68,17.11a1.26,1.26,0,0,1,.34-1,1.37,1.37,0,0,1,1-.32,1.33,1.33,0,0,1,1,.33A1.46,1.46,0,0,1,105,18a1.3,1.3,0,0,1-1,.34,1.34,1.34,0,0,1-1-.33A1.25,1.25,0,0,1,102.68,17.11Z" transform="translate(0 -0.26)"/><path d="M73.42,22.45v7.09a3.93,3.93,0,0,1-1.09,3,4.19,4.19,0,0,1-3.05,1.06,3.71,3.71,0,0,1-4-4V22.45H66v7.09a3.05,3.05,0,0,0,3.36,3.34,3,3,0,0,0,3.29-3.27V22.45Z" transform="translate(0 -0.26)"/><path d="M84.37,33.41H83.6l-6.49-9.73h-.06q.09,1.74.09,2.62v7.11h-.73v-11h.76l6.48,9.71h0q-.07-1.35-.07-2.56V22.45h.74Z" transform="translate(0 -0.26)"/><path d="M88.24,28.64v4.77h-.76v-11h2.61a4.92,4.92,0,0,1,3,.75,2.69,2.69,0,0,1,1,2.27,3,3,0,0,1-.58,1.86,3.23,3.23,0,0,1-1.77,1.09l3,5h-.91L91,28.64Zm0-.66h2.09a3.34,3.34,0,0,0,2.15-.62,2.21,2.21,0,0,0,.76-1.82,2.14,2.14,0,0,0-.75-1.82,4.09,4.09,0,0,0-2.44-.57H88.24Z" transform="translate(0 -0.26)"/><path d="M102.59,33.41h-6v-11h6v.7H97.36V27.3h4.93V28H97.36v4.7h5.22Z" transform="translate(0 -0.26)"/><path d="M110.34,29.54h-4.45l-1.53,3.87h-.85l4.41-11h.49l4.32,11h-.86Zm-4.17-.69h3.92L108.6,24.9q-.19-.46-.45-1.29a11.94,11.94,0,0,1-.44,1.3Z" transform="translate(0 -0.26)"/><path d="M114.28,33.41v-11H115V32.69h5.22v.72Z" transform="translate(0 -0.26)"/><path d="M122.16,33.41v-11h.76v11Z" transform="translate(0 -0.26)"/><path d="M128.88,33.41h-.77V23.17h-3.56v-.72h7.89v.72h-3.56Z" transform="translate(0 -0.26)"/><path d="M136.58,28.45l3.21-6h.82L137,29.18v4.23h-.79V29.24l-3.66-6.78h.88Z" transform="translate(0 -0.26)"/><path class="cls-3" d="M35.45,28.26a4.58,4.58,0,0,1-4.57-4.57V7H33.1V23.69a2.35,2.35,0,1,0,4.7,0V7H40V23.69A4.58,4.58,0,0,1,35.45,28.26Z" transform="translate(0 -0.26)"/></svg>