# Blender v2.78 (sub 0) OBJ File: 'halfpipe.blend'
# www.blender.org
mtllib halfpipe.mtl
o Cube_Cube.001
v 3.235631 0.060912 2.021667
v 3.235631 2.648661 2.021667
v 3.235631 0.060912 -2.021667
v 3.235631 2.648661 -2.021667
v -3.405556 0.060912 2.021667
v -3.405556 2.648661 2.021667
v -3.405556 0.060912 -2.021667
v -3.405556 2.648661 -2.021667
v 2.466305 1.427404 -2.021667
v 2.466305 1.427404 2.021667
v -2.874720 1.809956 -2.021667
v -2.874720 1.809956 2.021667
v -2.593543 1.362075 -2.021667
v -2.593543 1.362075 2.021667
v -3.047867 2.295935 -2.021667
v -3.047867 2.295935 2.021667
v -2.215143 0.969504 -2.021667
v -2.215143 0.969504 2.021667
v -3.073293 2.648661 -2.021667
v -0.657224 0.260511 -2.021667
v -0.657224 0.260511 2.021667
v -0.063620 0.276064 -2.021667
v -0.063620 0.276063 2.021667
v -1.228016 0.407932 -2.021667
v -1.228016 0.407931 2.021667
v 0.529985 0.325841 -2.021667
v 0.529985 0.325841 2.021667
v 2.920630 2.361264 -2.021667
v 2.920630 2.361263 2.021667
v 2.946056 2.648661 2.021667
v 1.626822 0.712658 -2.021667
v 1.626822 0.712658 2.021667
v 2.087904 1.034833 -2.021667
v 2.087904 1.034833 2.021667
v 2.747482 1.875285 -2.021667
v 2.747482 1.875285 2.021667
v 2.946056 2.648661 -2.021667
v -3.073293 2.648661 2.021667
v -1.754061 0.647329 -2.021667
v -1.754061 0.647329 2.021667
v 1.100777 0.473261 -2.021667
v 1.100777 0.473261 2.021667
v 2.747482 1.875285 -2.021667
v 2.466305 1.427404 -2.021667
v 2.466305 1.427404 2.021667
v 2.087904 1.034833 2.021667
v -2.876293 1.809956 2.021667
v -3.049441 2.295935 2.021667
v -2.595117 1.362075 -2.021667
v -2.876293 1.809956 -2.021667
v -2.595117 1.362075 2.021667
v -2.216717 0.969504 -2.021667
v -3.049441 2.295935 -2.021667
v -1.755635 0.647329 -2.021667
v -0.658797 0.260511 2.021667
v -1.229589 0.407931 2.021667
v -0.065193 0.276064 -2.021667
v -0.658797 0.260511 -2.021667
v -0.065193 0.276063 2.021667
v -2.216717 0.969504 2.021667
v -1.229589 0.407932 -2.021667
v 0.529985 0.325841 2.021667
v 0.529985 0.325841 -2.021667
v 2.920630 2.361263 2.021667
v 2.747482 1.875285 2.021667
v 1.626822 0.712658 -2.021667
v 2.087904 1.034833 -2.021667
v 1.626822 0.712658 2.021667
v 2.920630 2.361264 -2.021667
v -1.755635 0.647329 2.021667
v 1.100777 0.473261 -2.021667
v 1.100777 0.473261 2.021667
vt 0.3120 0.9480
vt 0.0001 0.9480
vt 0.0001 0.9398
vt 0.3120 0.9398
vt 0.3120 0.0639
vt 0.0001 0.0639
vt 0.0001 0.0001
vt 0.3120 0.0001
vt 0.0001 0.2428
vt 0.3120 0.2428
vt 0.3120 0.3167
vt 0.0001 0.3167
vt 0.0001 0.7690
vt 0.3120 0.7690
vt 0.3120 0.8514
vt 0.0001 0.8514
vt 0.0001 0.4320
vt 0.3120 0.4320
vt 0.3120 0.4729
vt 0.0001 0.4729
vt 0.0001 0.5053
vt 0.3120 0.5053
vt 0.3120 0.5389
vt 0.0001 0.5389
vt 0.3120 0.5798
vt 0.0001 0.5798
vt 0.0001 0.0720
vt 0.3120 0.0720
vt 0.3120 0.1604
vt 0.0001 0.1604
vt 0.0001 0.6951
vt 0.3120 0.6951
vt 0.3120 0.3802
vt 0.0001 0.3802
vt 0.3120 0.6317
vt 0.0001 0.6317
vt 0.0001 0.9999
vt 0.0001 0.0001
vt 0.6658 0.0001
vt 0.6658 0.9999
vt 0.0001 0.0001
vt 0.7388 0.0001
vt 0.7503 0.9884
vt 0.7503 0.9898
vt 0.7501 0.9921
vt 0.7499 0.9943
vt 0.7495 0.9962
vt 0.7491 0.9977
vt 0.7486 0.9989
vt 0.7481 0.9996
vt 0.7475 0.9998
vt 0.7470 0.9999
vt 0.7464 0.9992
vt 0.7459 0.9981
vt 0.7454 0.9966
vt 0.7451 0.9947
vt 0.7448 0.9926
vt 0.7446 0.9903
vt 0.7445 0.9886
vt 0.7388 0.9886
vt 0.0001 0.9886
vt 0.6658 0.0001
vt 0.6658 0.9999
vt 0.0001 0.9999
vt 0.0001 0.0001
vt 0.6693 0.4420
vt 0.3390 0.9999
vt 0.0029 0.5667
vt 0.0024 0.5659
vt 0.0017 0.5648
vt 0.0011 0.5637
vt 0.0006 0.5626
vt 0.0002 0.5616
vt 0.0001 0.5607
vt 0.0001 0.5599
vt 0.0004 0.5595
vt 0.0007 0.5592
vt 0.0012 0.5591
vt 0.0018 0.5592
vt 0.0025 0.5596
vt 0.0033 0.5601
vt 0.0041 0.5608
vt 0.0050 0.5617
vt 0.0055 0.5623
vt 0.0080 0.5580
vt 0.3383 0.0001
vt 0.9999 0.0001
vt 0.9999 0.8909
vt 0.0001 0.8909
vt 0.0001 0.0001
vt 1.0000 0.0000
vt 1.0000 0.1454
vt 0.0000 0.1454
vt 0.0000 0.0000
vt 0.3120 0.9999
vt 0.0001 0.9999
vt 0.0000 0.0000
vt 1.0000 0.0000
vt 1.0000 0.1429
vt 0.0000 0.1429
vt 0.0000 0.0000
vt 0.0000 0.0000
vt 0.0000 0.0000
vt 0.0000 0.0000
vt 0.0000 0.0000
vt 0.0000 0.0000
vt 0.0000 0.0000
vt 0.0000 0.0000
vt 0.0000 0.0000
vt 0.0000 0.0000
vt 0.0000 0.0000
vt 0.0000 0.0000
vt 0.0000 0.0000
vt 0.0000 0.0000
vt 0.0000 0.0000
vt 0.0000 0.0000
vt 0.0000 0.0000
vt 0.0000 0.0000
vt 0.0000 0.0000
vt 0.0000 0.0000
vt 0.0000 0.0000
vt 0.0000 0.0000
vt 0.0000 0.0000
vt 0.0000 0.0000
vt 0.0000 0.0000
vt 0.0000 0.0000
vt 0.0000 0.0000
vt 0.0000 0.0000
vt 0.0000 0.0000
vt 0.0000 0.0000
vt 0.0000 0.0000
vt 0.0000 0.0000
vt 0.0000 0.0000
vt 0.0000 0.0000
vt 0.0000 0.0000
vt 0.0000 0.0000
vt 0.0000 0.0000
vt 0.0000 0.0000
vt 0.0000 0.0000
vt 0.0000 0.0000
vt 0.0000 0.0000
vt 0.0000 0.0000
vt 0.0000 0.0000
vt 0.0000 0.0000
vt 0.0000 0.0000
vt 0.0000 0.0000
vt 0.0000 0.0000
vt 0.0000 0.0000
vt 0.0000 0.0000
vt 0.0000 0.0000
vt 0.0000 0.0000
vt 0.0000 0.0000
vt 0.0000 0.0000
vt 0.0000 0.0000
vt 0.0000 0.0000
vt 0.0000 0.0000
vt 0.0000 0.0000
vt 0.0000 0.0000
vt 0.0000 0.0000
vt 0.0000 0.0000
vn 0.0000 0.0000 1.0000
vn -0.9974 -0.0719 0.0000
vn -0.7200 -0.6940 -0.0000
vn 0.8469 -0.5317 -0.0000
vn -0.2501 -0.9682 -0.0000
vn 0.9420 -0.3356 -0.0000
vn 0.0833 -0.9965 -0.0000
vn 0.2501 -0.9682 -0.0000
vn -0.9420 -0.3356 0.0000
vn 0.7200 -0.6940 0.0000
vn -0.5728 -0.8197 -0.0000
vn -0.4142 -0.9102 -0.0000
vn -0.8469 -0.5317 -0.0000
vn 0.0262 -0.9997 -0.0000
vn 0.4142 -0.9102 -0.0000
vn 0.5728 -0.8197 -0.0000
vn 0.0000 1.0000 0.0000
vn -1.0000 0.0000 0.0000
vn 1.0000 0.0000 0.0000
vn -0.0000 0.0000 -1.0000
vn 0.0000 -1.0000 0.0000
vn 0.9961 -0.0881 -0.0000
usemtl Material.002
s off
f 28/1/1 29/2/1 64/3/1 69/4/1
f 15/5/2 16/6/2 38/7/2 19/8/2
f 51/9/3 49/10/3 52/11/3 60/12/3
f 45/13/4 44/14/4 43/15/4 65/16/4
f 56/17/5 61/18/5 58/19/5 55/20/5
f 65/16/6 43/15/6 69/4/6 64/3/6
f 59/21/7 57/22/7 63/23/7 62/24/7
f 62/24/8 63/23/8 71/25/8 72/26/8
f 48/27/9 53/28/9 50/29/9 47/30/9
f 46/31/10 67/32/10 44/14/10 45/13/10
f 60/12/11 52/11/11 54/33/11 70/34/11
f 70/34/12 54/33/12 61/18/12 56/17/12
f 47/30/13 50/29/13 49/10/13 51/9/13
f 55/20/14 58/19/14 57/22/14 59/21/14
f 72/26/15 71/25/15 66/35/15 68/36/15
f 68/36/16 66/35/16 67/32/16 46/31/16
f 16/6/17 15/5/17 53/28/17 48/27/17
usemtl Material.002_plywood2.jpg
f 1/37/18 2/38/18 4/39/18 3/40/18
f 3/41/1 4/42/1 37/43/1 28/44/1 35/45/1 9/46/1 33/47/1 31/48/1 41/49/1 26/50/1 22/51/1 20/52/1 24/53/1 39/54/1 17/55/1 13/56/1 11/57/1 15/58/1 19/59/1 8/60/1 7/61/1
f 7/62/19 8/63/19 6/64/19 5/65/19
f 5/66/20 6/67/20 38/68/20 16/69/20 12/70/20 14/71/20 18/72/20 40/73/20 25/74/20 21/75/20 23/76/20 27/77/20 42/78/20 32/79/20 34/80/20 10/81/20 36/82/20 29/83/20 30/84/20 2/85/20 1/86/20
f 3/87/17 7/88/17 5/89/17 1/90/17
f 8/91/21 19/92/21 38/93/21 6/94/21
f 29/2/22 28/1/22 37/95/22 30/96/22
f 30/97/21 37/98/21 4/99/21 2/100/21
usemtl Material.002_NONE
f 26/101/1 41/102/1 71/103/1 63/104/1
f 15/105/20 11/106/20 50/107/20 53/108/20
f 42/109/1 27/110/1 62/111/1 72/112/1
f 13/113/20 17/114/20 52/115/20 49/116/20
f 32/117/1 42/109/1 72/112/1 68/118/1
f 14/119/1 12/120/1 47/121/1 51/122/1
f 29/123/1 36/124/1 65/125/1 64/126/1
f 41/102/1 31/127/1 66/128/1 71/103/1
f 11/106/20 13/113/20 49/116/20 50/107/20
f 22/129/1 26/101/1 63/104/1 57/130/1
f 40/131/1 18/132/1 60/133/1 70/134/1
f 12/120/1 16/135/1 48/136/1 47/121/1
f 27/110/20 23/137/20 59/138/20 62/111/20
f 17/114/20 39/139/20 54/140/20 52/115/20
f 31/127/1 33/141/1 67/142/1 66/128/1
f 34/143/1 32/117/1 68/118/1 46/144/1
f 35/145/1 28/146/1 69/147/1 43/148/1
f 21/149/1 25/150/1 56/151/1 55/152/1
f 33/141/1 9/153/1 44/154/1 67/142/1
f 20/155/1 22/129/1 57/130/1 58/156/1
f 36/124/1 10/157/1 45/158/1 65/125/1
f 23/137/20 21/149/20 55/152/20 59/138/20
f 18/132/1 14/119/1 51/122/1 60/133/1
f 9/153/1 35/145/1 43/148/1 44/154/1
f 39/139/20 24/159/20 61/160/20 54/140/20
f 24/159/20 20/155/20 58/156/20 61/160/20
f 10/157/1 34/143/1 46/144/1 45/158/1
f 25/150/1 40/131/1 70/134/1 56/151/1
